<svg xmlns="http://www.w3.org/2000/svg" xmlns:xlink="http://www.w3.org/1999/xlink" width="22.684" height="22.684" viewBox="0 0 22.684 22.684"><defs><style>.a{fill:none;}.b{clip-path:url(#a);}.c{fill:#fff;}</style><clipPath id="a"><rect class="a" width="22.684" height="22.684"/></clipPath></defs><g class="b"><path class="c" d="M15.926,0H6.758A6.765,6.765,0,0,0,0,6.758v9.169a6.765,6.765,0,0,0,6.758,6.758h9.169a6.765,6.765,0,0,0,6.758-6.758V6.758A6.765,6.765,0,0,0,15.926,0ZM20.4,15.926A4.476,4.476,0,0,1,15.926,20.4H6.758a4.476,4.476,0,0,1-4.476-4.476V6.758A4.476,4.476,0,0,1,6.758,2.282h9.169A4.476,4.476,0,0,1,20.4,6.758v9.169Z"/><path class="c" d="M138.867,133a5.867,5.867,0,1,0,5.867,5.867A5.874,5.874,0,0,0,138.867,133Zm0,9.452a3.585,3.585,0,1,1,3.585-3.585A3.585,3.585,0,0,1,138.867,142.452Z" transform="translate(-127.525 -127.525)"/><circle class="c" cx="1.406" cy="1.406" r="1.406" transform="translate(15.815 4.113)"/></g></svg>