<svg xmlns="http://www.w3.org/2000/svg" xmlns:xlink="http://www.w3.org/1999/xlink" width="20.016" height="16.227" viewBox="0 0 20.016 16.227"><defs><style>.a{fill:none;}.b{clip-path:url(#a);}.c{fill:#fff;}</style><clipPath id="a"><rect class="a" width="20.016" height="16.227"/></clipPath></defs><g class="b"><path class="c" d="M40.116,29.214a8.059,8.059,0,0,1-2.373.651,4.071,4.071,0,0,0,1.8-2.258,8.94,8.94,0,0,1-2.6,1,4.089,4.089,0,0,0-7.08,2.794,3.552,3.552,0,0,0,.115.919,11.584,11.584,0,0,1-8.458-4.286,4.182,4.182,0,0,0-.574,2.067A4.072,4.072,0,0,0,22.779,33.5,4.4,4.4,0,0,1,20.9,33v.038A4.105,4.105,0,0,0,24.2,37.059a4.825,4.825,0,0,1-1.072.153,4.711,4.711,0,0,1-.765-.077,4.032,4.032,0,0,0,3.827,2.832,8.207,8.207,0,0,1-5.09,1.761,8.649,8.649,0,0,1-1-.038,11.711,11.711,0,0,0,6.277,1.837A11.565,11.565,0,0,0,38.05,31.854v-.536a8.993,8.993,0,0,0,2.067-2.1Zm0,0" transform="translate(-20.1 -27.3)"/></g></svg>